<svg xmlns="http://www.w3.org/2000/svg" viewBox="0 0 23.49 20">
    <path d="M16.991 0a6.49 6.49 0 0 0-5.046 2.4l-.2.252-.2-.252A6.49 6.49 0 0 0 6.491 0 6.56 6.56 0 0 0 .005 6.468a9.314 9.314 0 0 0 1.734 5.486 19.309 19.309 0 0 0 3.991 4.225 32.451 32.451 0 0 0 5.839 3.739l.179.083.179-.083a32.153 32.153 0 0 0 5.839-3.739 19.382 19.382 0 0 0 3.986-4.225 9.323 9.323 0 0 0 1.739-5.486A6.57 6.57 0 0 0 16.991 0zm4.069 11.482a18.7 18.7 0 0 1-3.8 4.037 32.405 32.405 0 0 1-5.394 3.5l-.119.06-.119-.06a32.026 32.026 0 0 1-5.394-3.5 18.513 18.513 0 0 1-3.807-4.037A8.541 8.541 0 0 1 .835 6.5a5.934 5.934 0 0 1 1.7-4A5.533 5.533 0 0 1 6.491.839a5.654 5.654 0 0 1 4.885 2.794l.362.61.358-.61A5.654 5.654 0 0 1 16.982.839a5.533 5.533 0 0 1 3.959 1.651 5.939 5.939 0 0 1 1.7 4 8.469 8.469 0 0 1-1.581 4.992z"/>
</svg>
